<?xml version="1.0" encoding="utf-8"?>
<!-- Svg Vector Icons : http://www.onlinewebfonts.com/icon -->
<!DOCTYPE svg PUBLIC "-//W3C//DTD SVG 1.1//EN" "http://www.w3.org/Graphics/SVG/1.1/DTD/svg11.dtd">
<svg version="1.1" xmlns="http://www.w3.org/2000/svg" xmlns:xlink="http://www.w3.org/1999/xlink" x="0px" y="0px" viewBox="0 0 1000 1000" enable-background="new 0 0 1000 1000" xml:space="preserve">
<metadata> Svg Vector Icons : http://www.onlinewebfonts.com/icon </metadata>
<g><path d="M500,990c270.6,0,490-219.4,490-490c0-270.6-219.4-490-490-490C229.4,10,10,229.4,10,500C10,770.6,229.4,990,500,990z M500,541.4L327.3,714.1c-11.4,11.4-30,11.4-41.4,0c-11.4-11.4-11.4-30,0-41.4L458.6,500L285.9,327.3c-11.4-11.4-11.4-30,0-41.4c11.4-11.4,30-11.4,41.4,0L500,458.6l172.7-172.7c11.4-11.4,30-11.4,41.4,0c11.4,11.4,11.4,30,0,41.4L541.4,500l172.7,172.7c11.4,11.4,11.4,30,0,41.4c-11.4,11.4-30,11.4-41.4,0L500,541.4z"/></g>
</svg>